<?xml version="1.0" ?><!DOCTYPE svg  PUBLIC '-//W3C//DTD SVG 1.1//EN'  'http://www.w3.org/Graphics/SVG/1.1/DTD/svg11.dtd'><svg height="512px" id="Layer_1" style="enable-background:new 0 0 512 512;" version="1.1" viewBox="0 0 512 512" width="512px" xml:space="preserve" xmlns="http://www.w3.org/2000/svg" xmlns:xlink="http://www.w3.org/1999/xlink"><g><path d="M336.4,292.9c-21.2,1.5-49.7,2.4-80.2,2.4c-30.5,0-58.9-0.8-80.2-2.4c-17.3-1.2-27.3-2.7-33.3-4.5   c0.6,25.8,1.8,51.7,3.5,78c0,4.7,1.8,9.3,5.3,12.9c1.2,1.2,2.5,1.8,3.9,2.1v25.4c0,5.3,4.3,9.6,9.6,9.6h27c5.3,0,9.6-4.3,9.6-9.6   v-25.4h108.4v25.4c0,5.3,4.3,9.6,9.6,9.6h27c5.3,0,9.6-4.3,9.6-9.6v-25.4c1.4-0.3,2.7-0.9,3.9-2.1c3.5-3.6,5.3-8.2,5.3-12.9   c1.8-26.3,2.9-52.2,3.5-77.9C363.3,290.2,353.3,291.7,336.4,292.9z M213.7,345.5c-0.1,5.4-4.2,9.3-9.1,9   c-10.4-0.5-15.3-0.9-26.2-1.7c-5.1-0.4-10.3-3.8-10.9-9.3c-0.3-2.2-0.4-3.4-0.6-5.8c-0.4-5.8,4.2-9.9,9.6-9.6   c11.2,0.8,16.8,1.1,28.1,1.6c5.3,0.2,9.4,4.7,9.3,10.2C213.8,342.2,213.7,343.3,213.7,345.5z M345.4,342.4   c-0.3,5.3-5.7,10-10.9,10.4c-11,0.8-16.1,1.1-26.8,1.7c-5.1,0.3-9.2-3.9-9.3-9.2c0-2.2-0.1-3.3-0.1-5.5c-0.2-5.3,3.9-9.8,9.2-10   c11.2-0.5,16.9-0.8,28.1-1.6c5.3-0.4,10,3.6,10,8.9C345.6,339.2,345.6,340.3,345.4,342.4z"/><path d="M398.8,135.7h-7.1c-5,0-9.1,3.9-9.6,8.8h-15.5c-0.3-5.5-0.6-11-1-16.6v-1.6c-41.4-41.1-178.1-41.1-219.4,0v1.6   c-0.4,5.6-0.7,11.1-1,16.6h-15.5c-0.4-4.9-4.5-8.8-9.6-8.8h-7.1c-5.3,0-9.6,4.3-9.6,9.6v50.8c0,5.3,4.3,9.6,9.6,9.6h7.1   c5.3,0,9.6-4.3,9.6-9.6v-44.4h15c-2.3,41.9-3,83-2.3,124.4c0.6,0.4,1.2,0.9,1.5,1.5c18.2,9.2,206,9.2,224.2,0   c0.3-0.5,0.7-0.9,1.2-1.3c0.7-41.4-0.1-82.6-2.3-124.7h15v44.4c0,5.3,4.3,9.6,9.6,9.6h7.1c5.3,0,9.6-4.3,9.6-9.6v-50.8   C408.4,140.1,404.1,135.7,398.8,135.7z M251.6,262l-71,1.2l43.9-48.1v26c0,2,1.6,3.6,3.6,3.6s3.6-1.6,3.6-3.6v-70.3   c0-2-1.6-3.6-3.6-3.6s-3.6,1.6-3.6,3.6v38.9l-55.3,53.6l-14.9,0.2V145.4c0-5.3,4.3-9.6,9.6-9.6h87.7V262z M359.6,264l-8.5-1.8   c-4.8-4.5-11.9-7.7-20-9.8l-44-42.7v-38.9c0-2-1.6-3.6-3.6-3.6c-2,0-3.6,1.6-3.6,3.6v70.3c0,2,1.6,3.6,3.6,3.6c2,0,3.6-1.6,3.6-3.6   v-26l32.1,35.2c-19.5-2.1-41.2,1.6-52,11.5l-4.9,0.1V135.7H350c5.3,0,9.6,4.3,9.6,9.6V264z"/></g></svg>